<?xml version="1.0" standalone="no"?>
<!DOCTYPE svg PUBLIC "-//W3C//DTD SVG 20010904//EN"
 "http://www.w3.org/TR/2001/REC-SVG-20010904/DTD/svg10.dtd">
<svg version="1.0" xmlns="http://www.w3.org/2000/svg"
 width="260.000000pt" height="260.000000pt" viewBox="0 0 260.000000 260.000000"
 preserveAspectRatio="xMidYMid meet">
<metadata>
Created by potrace 1.14, written by Peter Selinger 2001-2017
</metadata>
<g transform="translate(0.000000,260.000000) scale(0.100000,-0.100000)"
fill="#000000" stroke="none">
<path d="M1259 2513 c-24 -6 -1180 -1164 -1191 -1193 -5 -13 -7 -34 -4 -45 3
-12 274 -289 601 -617 556 -556 598 -596 628 -593 28 1 109 79 640 610 456
456 607 613 607 631 0 21 -5 23 -52 26 -29 2 -221 2 -425 0 l-373 -2 0 -35 c0
-33 2 -35 33 -36 17 0 178 0 356 0 178 0 322 -2 320 -4 -2 -2 -252 -253 -556
-557 l-552 -553 -574 575 -574 575 572 573 c315 314 574 572 577 572 3 0 74
-70 159 -156 85 -86 167 -168 183 -182 16 -15 43 -42 60 -61 17 -19 42 -44 55
-55 13 -12 35 -33 49 -48 18 -20 35 -28 59 -28 73 0 50 31 -243 325 -285 284
-296 293 -355 278z"/>
</g>
</svg>
